<svg width="1600" height="900" viewBox="0 0 1600 900" fill="none" xmlns="http://www.w3.org/2000/svg">
  <rect width="1600" height="900" rx="48" fill="#F5F5F5"/>
  <rect x="90" y="80" width="1420" height="740" rx="36" fill="white" stroke="#D1D5DB" stroke-width="4"/>
  <rect x="90" y="80" width="1420" height="72" rx="36" fill="#F3F4F6"/>
  <circle cx="146" cy="116" r="12" fill="#FF5F57"/>
  <circle cx="184" cy="116" r="12" fill="#FEBC2E"/>
  <circle cx="222" cy="116" r="12" fill="#28C840"/>
  <rect x="290" y="98" width="320" height="36" rx="18" fill="white"/>
  <text x="450" y="121" text-anchor="middle" fill="#9CA3AF" font-size="22" font-family="Arial, sans-serif">kennisbank.aitje.local</text>
  <rect x="150" y="190" width="520" height="460" rx="32" fill="#111827"/>
  <text x="195" y="270" fill="#FACC15" font-size="32" font-family="Arial, sans-serif" font-weight="700">Placeholder</text>
  <text x="195" y="330" fill="white" font-size="54" font-family="Arial, sans-serif" font-weight="700">AITJE Assistent</text>
  <text x="195" y="390" fill="white" font-size="54" font-family="Arial, sans-serif" font-weight="700">Kennisbank</text>
  <text x="195" y="450" fill="#D1D5DB" font-size="26" font-family="Arial, sans-serif">Voeg hier later een echte kennisbank-visual of screenshot toe.</text>
  <rect x="730" y="190" width="660" height="110" rx="24" fill="#FFF8DC" stroke="#FACC15" stroke-width="4"/>
  <text x="780" y="255" fill="#111827" font-size="34" font-family="Arial, sans-serif" font-weight="700">Documenten, context en bronverwijzingen</text>
  <rect x="730" y="340" width="300" height="140" rx="24" fill="#F3F4F6"/>
  <rect x="1070" y="340" width="320" height="140" rx="24" fill="#F3F4F6"/>
  <rect x="730" y="520" width="660" height="170" rx="24" fill="#F9FAFB" stroke="#E5E7EB" stroke-width="3"/>
  <text x="880" y="420" text-anchor="middle" fill="#6B7280" font-size="24" font-family="Arial, sans-serif">Bronnen</text>
  <text x="1230" y="420" text-anchor="middle" fill="#6B7280" font-size="24" font-family="Arial, sans-serif">Embeddings</text>
  <text x="780" y="605" fill="#374151" font-size="28" font-family="Arial, sans-serif" font-weight="700">Zoekbare kennislaag</text>
  <text x="780" y="650" fill="#6B7280" font-size="24" font-family="Arial, sans-serif">Context die aansluit op je eigen organisatie, processen en documenten.</text>
</svg>
