<svg width="1600" height="900" viewBox="0 0 1600 900" fill="none" xmlns="http://www.w3.org/2000/svg">
  <rect width="1600" height="900" rx="48" fill="#F5F5F5"/>
  <rect x="90" y="80" width="1420" height="740" rx="36" fill="white" stroke="#D1D5DB" stroke-width="4"/>
  <rect x="90" y="80" width="1420" height="72" rx="36" fill="#F3F4F6"/>
  <circle cx="146" cy="116" r="12" fill="#FF5F57"/>
  <circle cx="184" cy="116" r="12" fill="#FEBC2E"/>
  <circle cx="222" cy="116" r="12" fill="#28C840"/>
  <rect x="300" y="98" width="260" height="36" rx="18" fill="white"/>
  <text x="430" y="121" text-anchor="middle" fill="#9CA3AF" font-size="22" font-family="Arial, sans-serif">rechten.aitje.local</text>
  <rect x="150" y="190" width="530" height="520" rx="32" fill="#111827"/>
  <text x="200" y="270" fill="#FACC15" font-size="32" font-family="Arial, sans-serif" font-weight="700">Placeholder</text>
  <text x="200" y="330" fill="white" font-size="54" font-family="Arial, sans-serif" font-weight="700">OS beheer</text>
  <text x="200" y="390" fill="white" font-size="54" font-family="Arial, sans-serif" font-weight="700">rechten & rollen</text>
  <rect x="760" y="190" width="610" height="120" rx="24" fill="#FFF8DC" stroke="#FACC15" stroke-width="4"/>
  <text x="810" y="260" fill="#111827" font-size="34" font-family="Arial, sans-serif" font-weight="700">Bevoegdheden en toegang</text>
  <rect x="760" y="350" width="610" height="100" rx="22" fill="#F3F4F6"/>
  <rect x="760" y="480" width="610" height="100" rx="22" fill="#F3F4F6"/>
  <rect x="760" y="610" width="610" height="100" rx="22" fill="#F3F4F6"/>
</svg>
